<?xml version="1.0" standalone="no"?>
<!DOCTYPE svg PUBLIC "-//W3C//DTD SVG 20010904//EN"
 "http://www.w3.org/TR/2001/REC-SVG-20010904/DTD/svg10.dtd">
<svg version="1.0" xmlns="http://www.w3.org/2000/svg"
 width="300.000000pt" height="300.000000pt" viewBox="0 0 300.000000 300.000000"
 preserveAspectRatio="xMidYMid meet">
<metadata>
Created by potrace 1.11, written by Peter Selinger 2001-2013
</metadata>
<g transform="translate(0.000000,300.000000) scale(0.100000,-0.100000)"
fill="#000000" stroke="none">
<path d="M0 1500 l0 -1500 1500 0 1500 0 0 1500 0 1500 -1500 0 -1500 0 0
-1500z m778 493 c-3 -34 -6 -37 -33 -38 l-30 0 -3 -117 -3 -118 -34 0 -35 0 0
115 c0 111 -1 116 -22 125 l-23 9 23 0 c16 1 22 7 22 25 0 18 -7 26 -22 29
-13 2 19 5 70 6 l93 1 -3 -37z m148 -50 c42 -77 47 -93 45 -140 -2 -33 3 -61
11 -71 12 -15 11 -16 -4 -4 -9 7 -36 45 -60 85 l-43 72 -3 -82 c-3 -76 -4 -83
-24 -83 -17 0 -18 3 -8 15 8 10 11 39 8 85 -2 44 0 70 7 70 5 0 1 7 -9 15 -15
11 -23 12 -33 3 -18 -15 -19 -12 -15 60 l4 62 38 0 c39 0 39 -1 86 -87z m185
-5 c50 -87 54 -96 48 -142 -4 -36 -1 -52 10 -64 13 -13 13 -14 1 -10 -8 2 -34
36 -58 74 -76 123 -108 148 -123 93 -4 -14 -7 11 -8 59 l-1 82 39 0 c39 0 39
-1 92 -92z m119 -3 c0 -57 -4 -95 -10 -95 -12 0 -12 1 -10 102 1 66 -1 77 -17
81 -12 3 -9 5 10 6 l27 1 0 -95z"/>
</g>
</svg>
